<svg viewBox="350.712 274.1807 348.576 73.6386" width="5000" height="1056.277540622418" xmlns="http://www.w3.org/2000/svg" xmlns:xlink="http://www.w3.org/1999/xlink" preserveAspectRatio="none"><defs></defs><style>.a3WKIowxM3fillColor {fill:#E6E9F5;fill-opacity:1;}.aIptOCySncolors-0 {fill:#4654A3;fill-opacity:1;}.companyName {fill:#270949;fill-opacity:1;}.shapeStroke-str {stroke:#4654A3;stroke-opacity:1;}.text {fill:#270949;fill-opacity:1;}</style><g opacity="1" transform="rotate(0 350.712 274.1807)">
<svg width="73.6386" height="73.6386" x="350.712" y="274.1807" version="1.1" preserveAspectRatio="none" viewBox="0 0 73.6386 73.6386">
  <rect x="0" y="0" width="73.6386" height="73.6386" class="a3WKIowxM3fillColor shapeStroke-str" style="stroke-width:0;" rx="150px" ry="150px" />
</svg>
</g><g opacity="1" transform="rotate(0 365.9621 285.2265)">
<svg width="43.1384" height="51.547" x="365.9621" y="285.2265" version="1.1" preserveAspectRatio="none" viewBox="38.89999771118164 26.999990463256836 122.09999084472656 145.90000915527344">
  <g transform="matrix(1 0 0 1 0 0)" ><g><path d="M141 27c-11.1 0-20 8.9-20 19.8 0 2.4.5 4.8 1.3 7L72.1 81.7c-3.5-3.1-8-5-13.2-5-11.1 0-20 8.9-20 19.8 0 11 9 19.8 20 19.8 4.7 0 9-1.6 12.4-4.3l25.8 29.7c-2.3 3.2-3.5 7-3.5 11.4 0 11 9 19.8 20 19.8 11.1 0 20-8.9 20-19.8s-9-19.8-20-19.8c-5.3 0-10.3 2.1-13.8 5.6l-25.6-29.4c2.9-3.5 4.8-8 4.8-12.8 0-4.5-1.6-8.7-4-12l49.1-27.3c3.5 5.6 9.8 9.3 16.9 9.3 11.1 0 20-8.9 20-19.8-.1-11.1-9.1-19.9-20-19.9zm-27.5 110.5c8.8 0 15.9 7.2 15.9 15.9 0 8.8-7.2 15.9-15.9 15.9s-15.9-7.2-15.9-15.9c0-8.9 7.3-15.9 15.9-15.9zm-54.5-25c-8.8 0-15.9-7.2-15.9-15.9 0-8.8 7.2-15.9 15.9-15.9 4.2 0 7.9 1.6 10.7 4.1 0 .2 0 .2.2.4.4.5.6.8 1.1 1 2.5 2.9 4 6.6 4 10.5 0 8.8-7.2 15.8-16 15.8zm82-49.8c-8.8 0-15.9-7.2-15.9-15.9 0-8.8 7.2-15.9 15.9-15.9s15.9 7.2 15.9 15.9c.1 8.9-7.2 15.9-15.9 15.9z" data-color="1" class="aIptOCySncolors-0"></path></g></g>
</svg>
</g><g opacity="1" transform="rotate(0 440.0853 325.1613)">
<svg width="195.6778" height="14.1612" x="440.0853" y="325.1613" version="1.1" preserveAspectRatio="none" viewBox="0.64 -29.6 552.72 40">
  <g transform="matrix(1 0 0 1 0 0)" class="text"><path d="M0.64-28.20L20.20-28.20L20.20-25.24L12.24-25.24L12.24 0L8.60 0L8.60-25.24L0.64-25.24L0.64-28.20Z M39.36-22.32Q43.20-22.32 45.56-19.86Q47.92-17.40 47.92-12.76L47.92-12.76L47.92 0L44.28 0L44.28-12.44Q44.28-15.72 42.60-17.48Q40.92-19.24 38.04-19.24L38.04-19.24Q35.04-19.24 33.24-17.30Q31.44-15.36 31.44-11.64L31.44-11.64L31.44 0L27.80 0L27.80-29.60L31.44-29.60L31.44-16.76Q32.28-19.44 34.42-20.88Q36.56-22.32 39.36-22.32L39.36-22.32Z M77.72-12.20Q77.72-11.04 77.56-10.20L77.56-10.20L60.00-10.20Q60.12-6.44 62.14-4.56Q64.16-2.68 67.08-2.68L67.08-2.68Q69.72-2.68 71.50-4.02Q73.28-5.36 73.68-7.60L73.68-7.60L77.56-7.60Q77.16-5.32 75.78-3.52Q74.40-1.72 72.20-0.72Q70 0.28 67.24 0.28L67.24 0.28Q64.08 0.28 61.64-1.08Q59.20-2.44 57.82-4.98Q56.44-7.52 56.44-10.96L56.44-10.96Q56.44-14.40 57.82-16.96Q59.20-19.52 61.64-20.88Q64.08-22.24 67.24-22.24L67.24-22.24Q70.44-22.24 72.82-20.88Q75.20-19.52 76.46-17.24Q77.72-14.96 77.72-12.20L77.72-12.20ZM74.04-11.96Q74.16-14.40 73.24-16.04Q72.32-17.68 70.72-18.48Q69.12-19.28 67.24-19.28L67.24-19.28Q64.24-19.28 62.20-17.42Q60.16-15.56 60.00-11.96L60.00-11.96L74.04-11.96Z M119.44 0L115.32 0L107.96-11.52L104-11.52L104 0L100.36 0L100.36-28.20L109.64-28.20Q114.44-28.20 116.84-25.90Q119.24-23.60 119.24-19.80L119.24-19.80Q119.24-16.36 117.32-14.26Q115.40-12.16 111.76-11.64L111.76-11.64L119.44 0ZM104-25.04L104-14.16L109.32-14.16Q115.52-14.16 115.52-19.60L115.52-19.60Q115.52-25.04 109.32-25.04L109.32-25.04L104-25.04Z M147.88-12.20Q147.88-11.04 147.72-10.20L147.72-10.20L130.16-10.20Q130.28-6.44 132.30-4.56Q134.32-2.68 137.24-2.68L137.24-2.68Q139.88-2.68 141.66-4.02Q143.44-5.36 143.84-7.60L143.84-7.60L147.72-7.60Q147.32-5.32 145.94-3.52Q144.56-1.72 142.36-0.72Q140.16 0.28 137.40 0.28L137.40 0.28Q134.24 0.28 131.80-1.08Q129.36-2.44 127.98-4.98Q126.60-7.52 126.60-10.96L126.60-10.96Q126.60-14.40 127.98-16.96Q129.36-19.52 131.80-20.88Q134.24-22.24 137.40-22.24L137.40-22.24Q140.60-22.24 142.98-20.88Q145.36-19.52 146.62-17.24Q147.88-14.96 147.88-12.20L147.88-12.20ZM144.20-11.96Q144.32-14.40 143.40-16.04Q142.48-17.68 140.88-18.48Q139.28-19.28 137.40-19.28L137.40-19.28Q134.40-19.28 132.36-17.42Q130.32-15.56 130.16-11.96L130.16-11.96L144.20-11.96Z M163.52-22.24Q167.24-22.24 169.50-20.30Q171.76-18.36 172.24-15.08L172.24-15.08L168.76-15.08Q168.52-17.04 167.14-18.30Q165.76-19.56 163.44-19.56L163.44-19.56Q161.48-19.56 160.38-18.62Q159.28-17.68 159.28-16.08L159.28-16.08Q159.28-14.88 160.02-14.14Q160.76-13.40 161.86-13.02Q162.96-12.64 164.88-12.20L164.88-12.20Q167.32-11.64 168.82-11.06Q170.32-10.48 171.38-9.20Q172.44-7.92 172.44-5.76L172.44-5.76Q172.44-3.08 170.42-1.40Q168.40 0.28 165.04 0.28L165.04 0.28Q161.12 0.28 158.64-1.60Q156.16-3.48 155.72-6.84L155.72-6.84L159.24-6.84Q159.44-4.84 160.98-3.60Q162.52-2.36 165.04-2.36L165.04-2.36Q166.92-2.36 167.98-3.32Q169.04-4.28 169.04-5.84L169.04-5.84Q169.04-7.12 168.28-7.88Q167.52-8.64 166.40-9.04Q165.28-9.44 163.32-9.88L163.32-9.88Q160.88-10.44 159.42-11Q157.96-11.56 156.94-12.78Q155.92-14 155.92-16.08L155.92-16.08Q155.92-18.84 157.96-20.54Q160-22.24 163.52-22.24L163.52-22.24Z M201.52-12.20Q201.52-11.04 201.36-10.20L201.36-10.20L183.80-10.20Q183.92-6.44 185.94-4.56Q187.96-2.68 190.88-2.68L190.88-2.68Q193.52-2.68 195.30-4.02Q197.08-5.36 197.48-7.60L197.48-7.60L201.36-7.60Q200.96-5.32 199.58-3.52Q198.20-1.72 196-0.72Q193.80 0.28 191.04 0.28L191.04 0.28Q187.88 0.28 185.44-1.08Q183-2.44 181.62-4.98Q180.24-7.52 180.24-10.96L180.24-10.96Q180.24-14.40 181.62-16.96Q183-19.52 185.44-20.88Q187.88-22.24 191.04-22.24L191.04-22.24Q194.24-22.24 196.62-20.88Q199-19.52 200.26-17.24Q201.52-14.96 201.52-12.20L201.52-12.20ZM197.84-11.96Q197.96-14.40 197.04-16.04Q196.12-17.68 194.52-18.48Q192.92-19.28 191.04-19.28L191.04-19.28Q188.04-19.28 186-17.42Q183.96-15.56 183.80-11.96L183.80-11.96L197.84-11.96Z M219.28-22.24Q222.48-22.24 224.70-20.64Q226.92-19.04 227.80-16.36L227.80-16.36L227.80-21.96L231.44-21.96L231.44 0L227.80 0L227.80-5.60Q226.92-2.92 224.70-1.32Q222.48 0.28 219.28 0.28L219.28 0.28Q216.36 0.28 214.08-1.08Q211.80-2.44 210.50-4.98Q209.20-7.52 209.20-10.96L209.20-10.96Q209.20-14.40 210.50-16.96Q211.80-19.52 214.08-20.88Q216.36-22.24 219.28-22.24L219.28-22.24ZM220.32-19Q216.96-19 214.94-16.86Q212.92-14.72 212.92-10.96L212.92-10.96Q212.92-7.20 214.94-5.06Q216.96-2.92 220.32-2.92L220.32-2.92Q222.48-2.92 224.18-3.92Q225.88-4.92 226.84-6.74Q227.80-8.56 227.80-10.96L227.80-10.96Q227.80-13.36 226.84-15.20Q225.88-17.04 224.18-18.02Q222.48-19 220.32-19L220.32-19Z M244.88-17.52Q245.96-19.80 248.04-21.06Q250.12-22.32 253.00-22.32L253.00-22.32L253.00-18.36L251.88-18.36Q248.80-18.36 246.84-16.78Q244.88-15.20 244.88-11.56L244.88-11.56L244.88 0L241.24 0L241.24-21.96L244.88-21.96L244.88-17.52Z M270.32-22.24Q274.52-22.24 277.28-20Q280.04-17.76 280.68-14L280.68-14L276.84-14Q276.44-16.36 274.66-17.70Q272.88-19.04 270.24-19.04L270.24-19.04Q268.32-19.04 266.74-18.16Q265.16-17.28 264.20-15.46Q263.24-13.64 263.24-10.96L263.24-10.96Q263.24-8.28 264.20-6.46Q265.16-4.64 266.74-3.76Q268.32-2.88 270.24-2.88L270.24-2.88Q272.88-2.88 274.66-4.24Q276.44-5.60 276.84-7.96L276.84-7.96L280.68-7.96Q280.04-4.16 277.28-1.94Q274.52 0.28 270.32 0.28L270.32 0.28Q267.16 0.28 264.72-1.08Q262.28-2.44 260.90-4.98Q259.52-7.52 259.52-10.96L259.52-10.96Q259.52-14.40 260.90-16.96Q262.28-19.52 264.72-20.88Q267.16-22.24 270.32-22.24L270.32-22.24Z M301-22.32Q304.84-22.32 307.20-19.86Q309.56-17.40 309.56-12.76L309.56-12.76L309.56 0L305.92 0L305.92-12.44Q305.92-15.72 304.24-17.48Q302.56-19.24 299.68-19.24L299.68-19.24Q296.68-19.24 294.88-17.30Q293.08-15.36 293.08-11.64L293.08-11.64L293.08 0L289.44 0L289.44-29.60L293.08-29.60L293.08-16.76Q293.92-19.44 296.06-20.88Q298.20-22.32 301-22.32L301-22.32Z M345.52-28.48Q350.68-28.48 354.04-25.94Q357.40-23.40 358.68-19L358.68-19L354.84-19Q353.76-21.80 351.36-23.46Q348.96-25.12 345.48-25.12L345.48-25.12Q342.72-25.12 340.54-23.78Q338.36-22.44 337.10-19.94Q335.84-17.44 335.84-14.08L335.84-14.08Q335.84-10.76 337.10-8.28Q338.36-5.80 340.54-4.46Q342.72-3.12 345.48-3.12L345.48-3.12Q348.96-3.12 351.36-4.78Q353.76-6.44 354.84-9.24L354.84-9.24L358.68-9.24Q357.40-4.84 354.04-2.30Q350.68 0.24 345.52 0.24L345.52 0.24Q341.56 0.24 338.52-1.58Q335.48-3.40 333.78-6.66Q332.08-9.92 332.08-14.08L332.08-14.08Q332.08-18.28 333.78-21.56Q335.48-24.84 338.52-26.66Q341.56-28.48 345.52-28.48L345.52-28.48Z M377.52-22.24Q380.68-22.24 383.18-20.88Q385.68-19.52 387.10-16.96Q388.52-14.40 388.52-10.96L388.52-10.96Q388.52-7.52 387.10-4.98Q385.68-2.44 383.18-1.08Q380.68 0.28 377.52 0.28L377.52 0.28Q374.36 0.28 371.86-1.08Q369.36-2.44 367.92-4.98Q366.48-7.52 366.48-10.96L366.48-10.96Q366.48-14.40 367.92-16.96Q369.36-19.52 371.86-20.88Q374.36-22.24 377.52-22.24L377.52-22.24ZM377.52-19.04Q375.56-19.04 373.90-18.16Q372.24-17.28 371.22-15.46Q370.20-13.64 370.20-10.96L370.20-10.96Q370.20-8.32 371.22-6.50Q372.24-4.68 373.90-3.80Q375.56-2.92 377.52-2.92L377.52-2.92Q379.48-2.92 381.14-3.80Q382.80-4.68 383.82-6.50Q384.84-8.32 384.84-10.96L384.84-10.96Q384.84-13.64 383.82-15.46Q382.80-17.28 381.14-18.16Q379.48-19.04 377.52-19.04L377.52-19.04Z M424.28-22.32Q428.12-22.32 430.46-19.86Q432.80-17.40 432.80-12.76L432.80-12.76L432.80 0L429.16 0L429.16-12.44Q429.16-15.68 427.58-17.40Q426-19.12 423.24-19.12L423.24-19.12Q420.36-19.12 418.62-17.22Q416.88-15.32 416.88-11.64L416.88-11.64L416.88 0L413.24 0L413.24-12.44Q413.24-15.68 411.64-17.40Q410.04-19.12 407.32-19.12L407.32-19.12Q404.40-19.12 402.66-17.22Q400.92-15.32 400.92-11.64L400.92-11.64L400.92 0L397.28 0L397.28-21.96L400.92-21.96L400.92-16.96Q401.72-19.56 403.78-20.94Q405.84-22.32 408.52-22.32L408.52-22.32Q411.32-22.32 413.38-20.90Q415.44-19.48 416.32-16.72L416.32-16.72Q417.24-19.40 419.40-20.86Q421.56-22.32 424.28-22.32L424.28-22.32Z M454.56-22.24Q457.48-22.24 459.76-20.88Q462.04-19.52 463.34-16.96Q464.64-14.40 464.64-10.96L464.64-10.96Q464.64-7.52 463.34-4.98Q462.04-2.44 459.76-1.08Q457.48 0.28 454.56 0.28L454.56 0.28Q451.36 0.28 449.14-1.34Q446.92-2.96 446.08-5.60L446.08-5.60L446.08 10.40L442.44 10.40L442.44-21.96L446.08-21.96L446.08-16.36Q446.92-19 449.14-20.62Q451.36-22.24 454.56-22.24L454.56-22.24ZM453.52-19Q451.40-19 449.68-18.02Q447.96-17.04 447.00-15.20Q446.04-13.36 446.04-10.96L446.04-10.96Q446.04-8.56 447.00-6.74Q447.96-4.92 449.68-3.92Q451.40-2.92 453.52-2.92L453.52-2.92Q456.92-2.92 458.94-5.06Q460.96-7.20 460.96-10.96L460.96-10.96Q460.96-14.72 458.94-16.86Q456.92-19 453.52-19L453.52-19Z M482.40-22.24Q485.60-22.24 487.82-20.64Q490.04-19.04 490.92-16.36L490.92-16.36L490.92-21.96L494.56-21.96L494.56 0L490.92 0L490.92-5.60Q490.04-2.92 487.82-1.32Q485.60 0.28 482.40 0.28L482.40 0.28Q479.48 0.28 477.20-1.08Q474.92-2.44 473.62-4.98Q472.32-7.52 472.32-10.96L472.32-10.96Q472.32-14.40 473.62-16.96Q474.92-19.52 477.20-20.88Q479.48-22.24 482.40-22.24L482.40-22.24ZM483.44-19Q480.08-19 478.06-16.86Q476.04-14.72 476.04-10.96L476.04-10.96Q476.04-7.20 478.06-5.06Q480.08-2.92 483.44-2.92L483.44-2.92Q485.60-2.92 487.30-3.92Q489-4.92 489.96-6.74Q490.92-8.56 490.92-10.96L490.92-10.96Q490.92-13.36 489.96-15.20Q489-17.04 487.30-18.02Q485.60-19 483.44-19L483.44-19Z M515.92-22.32Q519.76-22.32 522.12-19.86Q524.48-17.40 524.48-12.76L524.48-12.76L524.48 0L520.84 0L520.84-12.44Q520.84-15.72 519.16-17.48Q517.48-19.24 514.60-19.24L514.60-19.24Q511.60-19.24 509.80-17.30Q508-15.36 508-11.64L508-11.64L508 0L504.36 0L504.36-21.96L508-21.96L508-16.76Q508.84-19.44 510.98-20.88Q513.12-22.32 515.92-22.32L515.92-22.32Z M531.52-21.96L535.60-21.96L542.72-4.68L549.32-21.96L553.36-21.96L540.32 10.40L536.20 10.40L540.76-0.36L531.52-21.96Z"/></g>
</svg>
</g><g opacity="1" transform="rotate(0 440.0853 282.6775)">
<svg width="259.2027" height="29.1054" x="440.0853" y="282.6775" version="1.1" preserveAspectRatio="none" viewBox="0.8 -29.76 267.5268 30.040000000000003">
  <g transform="matrix(1 0 0 1 0 0)" class="companyName"><path d="M29.80-27.48L31.84-27.48L27 0L25.20 0L29.48-24.28L14.76 0L13.12 0L6.84-24.20L2.64 0L0.80 0L5.64-27.48L7.68-27.48L14.36-2.28L29.80-27.48Z M39-27.96Q39-28.72 39.56-29.24Q40.12-29.76 40.84-29.76L40.84-29.76Q41.40-29.76 41.78-29.42Q42.16-29.08 42.16-28.56L42.16-28.56Q42.16-27.76 41.62-27.26Q41.08-26.76 40.32-26.76L40.32-26.76Q39.76-26.76 39.38-27.10Q39-27.44 39-27.96L39-27.96ZM38.52-21.72L40.32-21.72L36.48 0L34.68 0L38.52-21.72Z M49.08-29.60L50.88-29.60L45.68 0L43.88 0L49.08-29.60Z M58.12-29.60L59.92-29.60L54.72 0L52.92 0L58.12-29.60Z M66.12-27.96Q66.12-28.72 66.68-29.24Q67.24-29.76 67.96-29.76L67.96-29.76Q68.52-29.76 68.90-29.42Q69.28-29.08 69.28-28.56L69.28-28.56Q69.28-27.76 68.74-27.26Q68.20-26.76 67.44-26.76L67.44-26.76Q66.88-26.76 66.50-27.10Q66.12-27.44 66.12-27.96L66.12-27.96ZM65.64-21.72L67.44-21.72L63.60 0L61.80 0L65.64-21.72Z M84.48-22Q88.56-22 91.02-19.68Q93.48-17.36 93.48-13.28L93.48-13.28Q93.48-12.08 93.24-10.76L93.24-10.76Q92.64-7.36 90.80-4.86Q88.96-2.36 86.30-1.04Q83.64 0.28 80.60 0.28L80.60 0.28Q76.52 0.28 74.04-2.04Q71.56-4.36 71.56-8.48L71.56-8.48Q71.56-9.64 71.80-10.96L71.80-10.96Q72.40-14.32 74.24-16.84Q76.08-19.36 78.76-20.68Q81.44-22 84.48-22L84.48-22ZM84.24-20.40Q81.84-20.40 79.64-19.36Q77.44-18.32 75.82-16.18Q74.20-14.04 73.64-10.88L73.64-10.88Q73.40-9.64 73.40-8.56L73.40-8.56Q73.40-5.04 75.52-3.18Q77.64-1.32 80.84-1.32L80.84-1.32Q83.20-1.32 85.40-2.36Q87.60-3.40 89.22-5.56Q90.84-7.72 91.40-10.88L91.40-10.88Q91.64-12.16 91.64-13.20L91.64-13.20Q91.64-16.72 89.54-18.56Q87.44-20.40 84.24-20.40L84.24-20.40Z M111.52-22.16Q114.80-22.16 116.76-20.38Q118.72-18.60 118.72-15.12L118.72-15.12Q118.72-14 118.48-12.68L118.48-12.68L116.24 0L114.44 0L116.68-12.60Q116.88-13.88 116.88-14.72L116.88-14.72Q116.88-17.60 115.26-19.12Q113.64-20.64 110.76-20.64L110.76-20.64Q107.28-20.64 104.78-18.44Q102.28-16.24 101.44-11.96L101.44-11.96L99.32 0L97.52 0L101.36-21.72L103.16-21.72L102.12-15.96Q103.44-19 106-20.58Q108.56-22.16 111.52-22.16L111.52-22.16Z M137.32-28.20L139.36-28.20L144.40-2.32L158.68-28.20L160.72-28.20L145.12 0L142.96 0L137.32-28.20Z M165.64-27.96Q165.64-28.72 166.20-29.24Q166.76-29.76 167.48-29.76L167.48-29.76Q168.04-29.76 168.42-29.42Q168.80-29.08 168.80-28.56L168.80-28.56Q168.80-27.76 168.26-27.26Q167.72-26.76 166.96-26.76L166.96-26.76Q166.40-26.76 166.02-27.10Q165.64-27.44 165.64-27.96L165.64-27.96ZM165.16-21.72L166.96-21.72L163.12 0L161.32 0L165.16-21.72Z M179.32-22Q183.12-22 185.10-20.18Q187.08-18.36 186.96-15.20L186.96-15.20L185.20-15.20Q185.32-17.52 183.80-19.06Q182.28-20.60 179.12-20.60L179.12-20.60Q176.64-20.60 175.18-19.32Q173.72-18.04 173.72-16L173.72-16Q173.72-14.72 174.44-13.92Q175.16-13.12 176.22-12.68Q177.28-12.24 179.12-11.72L179.12-11.72Q181.24-11.12 182.52-10.54Q183.80-9.96 184.70-8.88Q185.60-7.80 185.60-6L185.60-6Q185.60-5.64 185.44-4.52L185.44-4.52Q185.04-2.36 183.20-1.04Q181.36 0.28 178.44 0.28L178.44 0.28Q174.52 0.28 172.30-1.54Q170.08-3.36 170.20-6.52L170.20-6.52L172.00-6.52Q171.80-4.20 173.50-2.66Q175.20-1.12 178.68-1.12L178.68-1.12Q180.76-1.12 182.10-2.10Q183.44-3.08 183.72-4.64L183.72-4.64Q183.80-5 183.80-5.68L183.80-5.68Q183.80-7.12 183.02-8.04Q182.24-8.96 181.10-9.44Q179.96-9.92 178.08-10.44L178.08-10.44Q176.04-11.04 174.86-11.56Q173.68-12.08 172.84-13.08Q172.00-14.08 172.00-15.72L172.00-15.72Q172.00-16.32 172.12-17.04L172.12-17.04Q172.52-19.32 174.44-20.66Q176.36-22 179.32-22L179.32-22Z M194.60-27.96Q194.60-28.72 195.16-29.24Q195.72-29.76 196.44-29.76L196.44-29.76Q197.00-29.76 197.38-29.42Q197.76-29.08 197.76-28.56L197.76-28.56Q197.76-27.76 197.22-27.26Q196.68-26.76 195.92-26.76L195.92-26.76Q195.36-26.76 194.98-27.10Q194.60-27.44 194.60-27.96L194.60-27.96ZM194.12-21.72L195.92-21.72L192.08 0L190.28 0L194.12-21.72Z M212.96-22Q217.04-22 219.50-19.68Q221.96-17.36 221.96-13.28L221.96-13.28Q221.96-12.08 221.72-10.76L221.72-10.76Q221.12-7.36 219.28-4.86Q217.44-2.36 214.78-1.04Q212.12 0.28 209.08 0.28L209.08 0.28Q205.00 0.28 202.52-2.04Q200.04-4.36 200.04-8.48L200.04-8.48Q200.04-9.64 200.28-10.96L200.28-10.96Q200.88-14.32 202.72-16.84Q204.56-19.36 207.24-20.68Q209.92-22 212.96-22L212.96-22ZM212.72-20.40Q210.32-20.40 208.12-19.36Q205.92-18.32 204.30-16.18Q202.68-14.04 202.12-10.88L202.12-10.88Q201.88-9.64 201.88-8.56L201.88-8.56Q201.88-5.04 204.00-3.18Q206.12-1.32 209.32-1.32L209.32-1.32Q211.68-1.32 213.88-2.36Q216.08-3.40 217.70-5.56Q219.32-7.72 219.88-10.88L219.88-10.88Q220.12-12.16 220.12-13.20L220.12-13.20Q220.12-16.72 218.02-18.56Q215.92-20.40 212.72-20.40L212.72-20.40Z M240.00-22.16Q243.28-22.16 245.24-20.38Q247.20-18.60 247.20-15.12L247.20-15.12Q247.20-14 246.96-12.68L246.96-12.68L244.72 0L242.92 0L245.16-12.60Q245.36-13.88 245.36-14.72L245.36-14.72Q245.36-17.60 243.74-19.12Q242.12-20.64 239.24-20.64L239.24-20.64Q235.76-20.64 233.26-18.44Q230.76-16.24 229.92-11.96L229.92-11.96L227.80 0L226.00 0L229.84-21.72L231.64-21.72L230.60-15.96Q231.92-19 234.48-20.58Q237.04-22.16 240.00-22.16L240.00-22.16Z M260.68-22Q264.48-22 266.46-20.18Q268.44-18.36 268.32-15.20L268.32-15.20L266.56-15.20Q266.68-17.52 265.16-19.06Q263.64-20.60 260.48-20.60L260.48-20.60Q258.00-20.60 256.54-19.32Q255.08-18.04 255.08-16L255.08-16Q255.08-14.72 255.80-13.92Q256.52-13.12 257.58-12.68Q258.64-12.24 260.48-11.72L260.48-11.72Q262.60-11.12 263.88-10.54Q265.16-9.96 266.06-8.88Q266.96-7.80 266.96-6L266.96-6Q266.96-5.64 266.80-4.52L266.80-4.52Q266.40-2.36 264.56-1.04Q262.72 0.28 259.80 0.28L259.80 0.28Q255.88 0.28 253.66-1.54Q251.44-3.36 251.56-6.52L251.56-6.52L253.36-6.52Q253.16-4.20 254.86-2.66Q256.56-1.12 260.04-1.12L260.04-1.12Q262.12-1.12 263.46-2.10Q264.80-3.08 265.08-4.64L265.08-4.64Q265.16-5 265.16-5.68L265.16-5.68Q265.16-7.12 264.38-8.04Q263.60-8.96 262.46-9.44Q261.32-9.92 259.44-10.44L259.44-10.44Q257.40-11.04 256.22-11.56Q255.04-12.08 254.20-13.08Q253.36-14.08 253.36-15.72L253.36-15.72Q253.36-16.32 253.48-17.04L253.48-17.04Q253.88-19.32 255.80-20.66Q257.72-22 260.68-22L260.68-22Z"/></g>
</svg>
</g></svg>